<mxfile host="app.diagrams.net" agent="Mozilla/5.0 (Windows NT 10.0; Win64; x64; rv:133.0) Gecko/20100101 Firefox/133.0" border="50" scale="3" compressed="false" locked="false" version="24.9.2">
  <diagram name="Blank" id="YmL12bMKpDGza6XwsDPr">
    <mxGraphModel dx="1331" dy="599" grid="0" gridSize="10" guides="1" tooltips="1" connect="1" arrows="1" fold="1" page="0" pageScale="1" pageWidth="827" pageHeight="1169" background="none" math="1" shadow="0">
      <root>
        <mxCell id="X5NqExCQtvZxIxQ7pmgY-0" />
        <mxCell id="1" parent="X5NqExCQtvZxIxQ7pmgY-0" />
        <mxCell id="Gr0Zq-AI6Quabplr0KPa-179" value="Mindmap" style="swimlane;html=1;startSize=20;horizontal=1;containerType=tree;labelBackgroundColor=none;strokeColor=#D4E1F5;strokeWidth=1;fillColor=none;fontFamily=Comic Sans MS;fontSize=9;swimlaneLine=0;dashed=1;collapsible=0;" parent="1" vertex="1">
          <mxGeometry x="67" y="81" width="772" height="520" as="geometry" />
        </mxCell>
        <mxCell id="guQ7o1sI_Ny0knSt3uz6-16" value="" style="edgeStyle=entityRelationEdgeStyle;rounded=0;orthogonalLoop=1;jettySize=auto;html=1;" edge="1" parent="Gr0Zq-AI6Quabplr0KPa-179" source="Gr0Zq-AI6Quabplr0KPa-180" target="guQ7o1sI_Ny0knSt3uz6-15">
          <mxGeometry relative="1" as="geometry" />
        </mxCell>
        <mxCell id="Gr0Zq-AI6Quabplr0KPa-180" value="&lt;font face=&quot;Comic Sans MS&quot;&gt;entry&lt;/font&gt;" style="ellipse;whiteSpace=wrap;html=1;align=center;container=1;recursiveResize=0;treeFolding=1;strokeWidth=2;" parent="Gr0Zq-AI6Quabplr0KPa-179" vertex="1">
          <mxGeometry x="53" y="189" width="108" height="53" as="geometry" />
        </mxCell>
        <mxCell id="guQ7o1sI_Ny0knSt3uz6-12" value="" style="edgeStyle=entityRelationEdgeStyle;rounded=0;orthogonalLoop=1;jettySize=auto;html=1;" edge="1" source="Gr0Zq-AI6Quabplr0KPa-180" target="guQ7o1sI_Ny0knSt3uz6-13" parent="Gr0Zq-AI6Quabplr0KPa-179">
          <mxGeometry relative="1" as="geometry" />
        </mxCell>
        <mxCell id="guQ7o1sI_Ny0knSt3uz6-22" value="" style="edgeStyle=entityRelationEdgeStyle;rounded=0;orthogonalLoop=1;jettySize=auto;html=1;" edge="1" parent="Gr0Zq-AI6Quabplr0KPa-179" source="guQ7o1sI_Ny0knSt3uz6-13" target="guQ7o1sI_Ny0knSt3uz6-21">
          <mxGeometry relative="1" as="geometry" />
        </mxCell>
        <mxCell id="guQ7o1sI_Ny0knSt3uz6-28" value="" style="edgeStyle=orthogonalEdgeStyle;rounded=0;orthogonalLoop=1;jettySize=auto;html=1;" edge="1" parent="Gr0Zq-AI6Quabplr0KPa-179" source="guQ7o1sI_Ny0knSt3uz6-13" target="guQ7o1sI_Ny0knSt3uz6-27">
          <mxGeometry relative="1" as="geometry" />
        </mxCell>
        <mxCell id="guQ7o1sI_Ny0knSt3uz6-13" value="&lt;font face=&quot;Comic Sans MS&quot;&gt;FUN_00e66efa&lt;/font&gt;" style="ellipse;whiteSpace=wrap;html=1;align=center;container=1;recursiveResize=0;treeFolding=1;strokeWidth=2;" vertex="1" parent="Gr0Zq-AI6Quabplr0KPa-179">
          <mxGeometry x="321" y="247.9999999999999" width="108" height="53" as="geometry" />
        </mxCell>
        <mxCell id="guQ7o1sI_Ny0knSt3uz6-20" value="" style="edgeStyle=entityRelationEdgeStyle;rounded=0;orthogonalLoop=1;jettySize=auto;html=1;" edge="1" parent="Gr0Zq-AI6Quabplr0KPa-179" source="guQ7o1sI_Ny0knSt3uz6-15" target="guQ7o1sI_Ny0knSt3uz6-19">
          <mxGeometry relative="1" as="geometry" />
        </mxCell>
        <mxCell id="guQ7o1sI_Ny0knSt3uz6-15" value="&lt;font face=&quot;Comic Sans MS&quot;&gt;FUN_00e67166&lt;/font&gt;" style="ellipse;whiteSpace=wrap;html=1;align=center;container=1;recursiveResize=0;treeFolding=1;strokeWidth=2;" vertex="1" parent="Gr0Zq-AI6Quabplr0KPa-179">
          <mxGeometry x="311" y="110" width="108" height="53" as="geometry" />
        </mxCell>
        <mxCell id="guQ7o1sI_Ny0knSt3uz6-17" value="" style="edgeStyle=entityRelationEdgeStyle;rounded=0;orthogonalLoop=1;jettySize=auto;html=1;" edge="1" target="guQ7o1sI_Ny0knSt3uz6-18" source="guQ7o1sI_Ny0knSt3uz6-15" parent="Gr0Zq-AI6Quabplr0KPa-179">
          <mxGeometry relative="1" as="geometry">
            <mxPoint x="228" y="297" as="sourcePoint" />
          </mxGeometry>
        </mxCell>
        <mxCell id="guQ7o1sI_Ny0knSt3uz6-26" value="" style="edgeStyle=orthogonalEdgeStyle;rounded=0;orthogonalLoop=1;jettySize=auto;html=1;" edge="1" parent="Gr0Zq-AI6Quabplr0KPa-179" source="guQ7o1sI_Ny0knSt3uz6-18" target="guQ7o1sI_Ny0knSt3uz6-25">
          <mxGeometry relative="1" as="geometry" />
        </mxCell>
        <mxCell id="guQ7o1sI_Ny0knSt3uz6-18" value="&lt;font face=&quot;Comic Sans MS&quot;&gt;FUN_00e670a8&lt;/font&gt;" style="ellipse;whiteSpace=wrap;html=1;align=center;container=1;recursiveResize=0;treeFolding=1;strokeWidth=2;" vertex="1" parent="Gr0Zq-AI6Quabplr0KPa-179">
          <mxGeometry x="500" y="64" width="108" height="53" as="geometry" />
        </mxCell>
        <mxCell id="guQ7o1sI_Ny0knSt3uz6-19" value="&lt;font face=&quot;Comic Sans MS&quot;&gt;halt_baddat&lt;/font&gt;" style="ellipse;whiteSpace=wrap;html=1;align=center;container=1;recursiveResize=0;treeFolding=1;strokeWidth=2;" vertex="1" parent="Gr0Zq-AI6Quabplr0KPa-179">
          <mxGeometry x="505" y="143" width="108" height="53" as="geometry" />
        </mxCell>
        <mxCell id="guQ7o1sI_Ny0knSt3uz6-30" value="" style="edgeStyle=orthogonalEdgeStyle;rounded=0;orthogonalLoop=1;jettySize=auto;html=1;" edge="1" parent="Gr0Zq-AI6Quabplr0KPa-179" source="guQ7o1sI_Ny0knSt3uz6-21" target="guQ7o1sI_Ny0knSt3uz6-29">
          <mxGeometry relative="1" as="geometry" />
        </mxCell>
        <mxCell id="guQ7o1sI_Ny0knSt3uz6-21" value="&lt;font face=&quot;Comic Sans MS&quot;&gt;FUN_00e66ebc&lt;/font&gt;" style="ellipse;whiteSpace=wrap;html=1;align=center;container=1;recursiveResize=0;treeFolding=1;strokeWidth=2;" vertex="1" parent="Gr0Zq-AI6Quabplr0KPa-179">
          <mxGeometry x="503" y="276" width="108" height="53" as="geometry" />
        </mxCell>
        <mxCell id="guQ7o1sI_Ny0knSt3uz6-25" value="函数的作用可能是规则加载" style="whiteSpace=wrap;html=1;strokeWidth=2;" vertex="1" parent="Gr0Zq-AI6Quabplr0KPa-179">
          <mxGeometry x="652" y="61" width="120" height="60" as="geometry" />
        </mxCell>
        <mxCell id="guQ7o1sI_Ny0knSt3uz6-27" value="&lt;div&gt;这段代码可能用于某种位操作或数据处理任务，例如压缩或加密算法或者计算hash&lt;/div&gt;" style="whiteSpace=wrap;html=1;strokeWidth=2;" vertex="1" parent="Gr0Zq-AI6Quabplr0KPa-179">
          <mxGeometry x="315" y="354" width="120" height="60" as="geometry" />
        </mxCell>
        <mxCell id="guQ7o1sI_Ny0knSt3uz6-29" value="两个内存区域之间进行数据复制或处理，函数的逻辑分为两部分：处理 4 字节对齐的数据和处理剩余的字节数据。具体的使用场景可能包括内存复制、数据处理或特定格式的数据处理。" style="whiteSpace=wrap;html=1;strokeWidth=2;" vertex="1" parent="Gr0Zq-AI6Quabplr0KPa-179">
          <mxGeometry x="497" y="361" width="120" height="159" as="geometry" />
        </mxCell>
      </root>
    </mxGraphModel>
  </diagram>
</mxfile>
